<?xml version="1.0" encoding="UTF-8"?>
<svg id="Layer_1" data-name="Layer 1" xmlns="http://www.w3.org/2000/svg" viewBox="0 0 56.69 56.69">
  <defs>
    <style>
      .cls-1 {
        stroke: #703416;
        stroke-linecap: round;
        stroke-linejoin: round;
        stroke-width: 3px;
      }

      .cls-1, .cls-2 {
        fill: #703416;
      }
    </style>
  </defs>
  <path class="cls-2" d="M53.53,5.44c1.32-1.56-1.67-4.1-2.99-2.54l-16.32,18.58,2.67,2.58L53.53,5.44Z"/>
  <line class="cls-1" x1="31.73" y1="21.85" x2="36.94" y2="26.64"/>
  <line class="cls-1" x1="29.58" y1="24.54" x2="34.79" y2="29.33"/>
  <path class="cls-2" d="M27.27,25.59l6.68,6.07c-2.85,7.25-4.1,14.19-3.37,21.45.06.58-.48,1.05-1.05.89-1.68-.46-3.19-1.22-4.54-2.28-.39-.31-.54-.83-.42-1.31l3.16-12.15-6.57,9.54c-.36.53-1.09.67-1.63.32-1.36-.88-2.54-1.77-3.39-2.7-.45-.49-.47-1.24-.09-1.78l5.03-7.07-6.99,5.72c-.39.32-.94.32-1.33,0-1.11-.92-2.02-1.73-2.8-2.63-.38-.44-.29-1.11.18-1.44l9.12-6.36-10.37,4.79c-.4.18-.88.14-1.22-.15-1.47-1.25-2.28-2.64-2.73-4.11-.12-.41.16-.82.58-.86,6.55-.52,13.65-2.24,21.69-5.96Z"/>
</svg>