<?xml version="1.0" encoding="UTF-8"?>
<svg id="Layer_1" data-name="Layer 1" xmlns="http://www.w3.org/2000/svg" viewBox="0 0 56.69 56.69">
  <defs>
    <style>
      .cls-1 {
        fill:#9b1b76;
      }

      .cls-2 {
        fill: #673b1b;
      }
  
    </style>
  </defs>
  <path class="cls-1" d="M1.78,50.71c.36,1.31,8.51,1.36,9.62,1.4,4.02.17,8.58-.44,12.03-2.66,2.02-1.3,3.61-3.16,5.61-4.49,2.45-1.64,5.07-1.46,7.91-1.43,5.19.05,10.22-1.43,13.77-5.4-1.15.17-2.09.99-3.05,1.65-1.78,1.21-3.87,1.92-6.01,2.11-2.32.2-4.29-.55-6.53-.89-1.3-.19-2.87-.37-4.05.31s-2.04,1.56-3.14,2.33c-1.7,1.19-3.26,2.6-5.09,3.59-3.42,1.85-14.02,4.99-18.22,4.04-1.02-.23-2.6-.92-2.85-1.94-.53.19-.15.84,0,1.39Z"/>
  <path class="cls-2" d="M24.53,24.7c.81-.7,7.56,7.12,6.74,7.82l23.2-22.39c2.68-2.41-.96-6.46-3.64-4.05l-26.3,18.61Z"/>
  <path class="cls-2" d="M22.91,25.51c.95-.76,7.7,7.74,6.74,8.5l-8.9,4.59c.5-.41-3-4.73-3.51-4.32l5.66-8.77Z"/>
  <path class="cls-1" d="M6.4,38.3c1.08-1.08,2.75-2.7,5.4-3.1.85-.13,3.55-.54,5.66,1.35,2.49,2.22,1.92,5.63,1.89,5.8-.42,2.3-2.03,3.62-2.56,4.05-1.51,1.2-3.1,1.47-5.66,1.89-2.63.43-2.88.06-4.72.54-3.13.82-3.93,2.3-4.62,1.89-1.38-.82.06-7.86,4.62-12.41Z"/>
</svg>